<svg width="451" height="120" viewBox="0 0 451 120" fill="none" xmlns="http://www.w3.org/2000/svg">
<path d="M213.785 59.9651C213.785 67.7418 212.311 74.3578 209.363 79.8131C206.438 85.2685 202.445 89.4354 197.384 92.3139C192.347 95.1693 186.683 96.5969 180.392 96.5969C174.055 96.5969 168.367 95.1577 163.33 92.2791C158.293 89.4006 154.312 85.2336 151.387 79.7783C148.462 74.323 146.999 67.7186 146.999 59.9651C146.999 52.1884 148.462 45.5724 151.387 40.117C154.312 34.6617 158.293 30.5064 163.33 27.6511C168.367 24.7725 174.055 23.3333 180.392 23.3333C186.683 23.3333 192.347 24.7725 197.384 27.6511C202.445 30.5064 206.438 34.6617 209.363 40.117C212.311 45.5724 213.785 52.1884 213.785 59.9651ZM198.499 59.9651C198.499 54.9276 197.744 50.6795 196.235 47.2206C194.75 43.7617 192.649 41.1385 189.933 39.351C187.217 37.5635 184.037 36.6698 180.392 36.6698C176.748 36.6698 173.567 37.5635 170.851 39.351C168.135 41.1385 166.023 43.7617 164.514 47.2206C163.028 50.6795 162.285 54.9276 162.285 59.9651C162.285 65.0026 163.028 69.2507 164.514 72.7096C166.023 76.1685 168.135 78.7917 170.851 80.5792C173.567 82.3667 176.748 83.2604 180.392 83.2604C184.037 83.2604 187.217 82.3667 189.933 80.5792C192.649 78.7917 194.75 76.1685 196.235 72.7096C197.744 69.2507 198.499 65.0026 198.499 59.9651Z" fill="#F5F5F5"/>
<path d="M244.088 96.6666C238.61 96.6666 233.897 95.5059 229.951 93.1845C226.028 90.8398 223.01 87.5899 220.898 83.4346C218.808 79.2792 217.764 74.4971 217.764 69.0882C217.764 63.6097 218.82 58.8044 220.932 54.6723C223.068 50.517 226.097 47.2786 230.021 44.9572C233.944 42.6126 238.61 41.4402 244.018 41.4402C248.684 41.4402 252.77 42.2876 256.275 43.9822C259.78 45.6768 262.554 48.0563 264.597 51.1205C266.64 54.1848 267.766 57.783 267.975 61.9151H253.977C253.582 59.2455 252.538 57.0982 250.843 55.4732C249.172 53.825 246.978 53.0009 244.262 53.0009C241.964 53.0009 239.956 53.6276 238.238 54.8812C236.544 56.1116 235.22 57.9106 234.269 60.2785C233.317 62.6463 232.841 65.5133 232.841 68.8793C232.841 72.2918 233.305 75.1935 234.234 77.5846C235.186 79.9756 236.52 81.798 238.238 83.0515C239.956 84.3051 241.964 84.9319 244.262 84.9319C245.957 84.9319 247.477 84.5836 248.824 83.8872C250.193 83.1908 251.319 82.181 252.201 80.8578C253.107 79.5114 253.698 77.898 253.977 76.0176H267.975C267.743 80.1033 266.628 83.7015 264.632 86.8122C262.659 89.8997 259.931 92.3139 256.449 94.055C252.967 95.7961 248.847 96.6666 244.088 96.6666Z" fill="#F5F5F5"/>
<path d="M302.979 42.1367V53.2794H270.77V42.1367H302.979ZM278.082 29.3225H292.916V79.1864C292.916 80.556 293.125 81.6238 293.542 82.3899C293.96 83.1328 294.541 83.6551 295.283 83.9569C296.05 84.2586 296.932 84.4095 297.93 84.4095C298.626 84.4095 299.323 84.3515 300.019 84.2354C300.715 84.0961 301.249 83.9917 301.621 83.922L303.954 94.9603C303.211 95.1925 302.166 95.4594 300.82 95.7612C299.474 96.0862 297.837 96.2835 295.91 96.3532C292.335 96.4925 289.201 96.0166 286.509 94.9255C283.839 93.8345 281.762 92.1398 280.276 89.8416C278.79 87.5434 278.059 84.6417 278.082 81.1364V29.3225Z" fill="#F5F5F5"/>
<path d="M324.951 96.6318C321.539 96.6318 318.498 96.0398 315.828 94.8559C313.159 93.6487 311.046 91.8729 309.491 89.5282C307.959 87.1604 307.193 84.2122 307.193 80.6837C307.193 77.7123 307.738 75.2168 308.829 73.1971C309.92 71.1775 311.406 69.5525 313.286 68.3222C315.167 67.0918 317.302 66.1633 319.693 65.5365C322.107 64.9097 324.638 64.4686 327.284 64.2133C330.395 63.8883 332.902 63.5865 334.805 63.3079C336.709 63.0061 338.09 62.5651 338.949 61.9847C339.808 61.4044 340.237 60.5454 340.237 59.408V59.199C340.237 56.9937 339.541 55.2875 338.148 54.0803C336.779 52.8732 334.829 52.2696 332.298 52.2696C329.629 52.2696 327.505 52.8616 325.926 54.0455C324.348 55.2062 323.303 56.6687 322.792 58.433L309.073 57.3187C309.769 54.0687 311.139 51.2598 313.182 48.892C315.225 46.5009 317.859 44.667 321.086 43.3902C324.336 42.0902 328.097 41.4402 332.368 41.4402C335.339 41.4402 338.183 41.7885 340.899 42.4849C343.638 43.1813 346.064 44.2608 348.176 45.7232C350.312 47.1857 351.995 49.0661 353.225 51.3643C354.456 53.6393 355.071 56.3669 355.071 59.5472V95.6219H341.003V88.205H340.586C339.727 89.8765 338.578 91.3506 337.138 92.6273C335.699 93.8809 333.97 94.8675 331.95 95.5871C329.93 96.2835 327.598 96.6318 324.951 96.6318ZM329.199 86.3943C331.381 86.3943 333.308 85.9649 334.979 85.106C336.651 84.2238 337.962 83.0399 338.914 81.5542C339.866 80.0685 340.342 78.3855 340.342 76.5051V70.8293C339.878 71.1311 339.239 71.4096 338.427 71.665C337.637 71.8971 336.744 72.1177 335.746 72.3266C334.747 72.5123 333.749 72.6864 332.751 72.8489C331.753 72.9882 330.847 73.1159 330.035 73.232C328.294 73.4873 326.773 73.8936 325.473 74.4507C324.174 75.0078 323.164 75.7623 322.444 76.7141C321.724 77.6426 321.365 78.8033 321.365 80.1962C321.365 82.2158 322.096 83.7595 323.558 84.8274C325.044 85.872 326.924 86.3943 329.199 86.3943Z" fill="#F5F5F5"/>
<path d="M378.354 64.7008V95.6219H363.521V42.1367H377.658V51.5732H378.285C379.469 48.4625 381.453 46.0018 384.239 44.1911C387.025 42.3572 390.402 41.4402 394.372 41.4402C398.086 41.4402 401.324 42.2527 404.087 43.8777C406.849 45.5027 408.996 47.8241 410.529 50.842C412.061 53.8366 412.827 57.4115 412.827 61.5669V95.6219H397.993V64.2133C398.016 60.9401 397.181 58.3865 395.486 56.5526C393.792 54.6955 391.459 53.7669 388.487 53.7669C386.491 53.7669 384.727 54.1964 383.194 55.0553C381.686 55.9142 380.502 57.1678 379.643 58.816C378.807 60.441 378.378 62.4026 378.354 64.7008Z" fill="#F5F5F5"/>
<path d="M450.024 42.1367V53.2794H417.815V42.1367H450.024ZM425.128 29.3225H439.961V79.1864C439.961 80.556 440.17 81.6238 440.588 82.3899C441.006 83.1328 441.586 83.6551 442.329 83.9569C443.095 84.2586 443.977 84.4095 444.975 84.4095C445.672 84.4095 446.368 84.3515 447.065 84.2354C447.761 84.0961 448.295 83.9917 448.666 83.922L450.999 94.9603C450.256 95.1925 449.212 95.4594 447.865 95.7612C446.519 96.0862 444.882 96.2835 442.956 96.3532C439.381 96.4925 436.247 96.0166 433.554 94.9255C430.885 93.8345 428.807 92.1398 427.321 89.8416C425.836 87.5434 425.104 84.6417 425.128 81.1364V29.3225Z" fill="#F5F5F5"/>
<path d="M60.333 9C98.0222 9 111.333 22.3734 111.333 60C111.333 97.4844 97.8004 111 60.333 111C22.976 111 9.33301 97.311 9.33301 60C9.33301 22.5461 22.7534 9 60.333 9Z" fill="#1E1E1E"/>
<path d="M60.333 0C104.673 0 120.333 15.7334 120.333 60C120.333 104.099 104.412 120 60.333 120C16.3835 120 0.333008 103.895 0.333008 60C0.333008 15.9366 16.1218 3.00866e-07 60.333 0ZM82.2441 35.0098C82.2441 32.853 81.3038 32.6915 79.458 32.8789C68.0784 34.0342 58.7671 42.188 55.8975 52.9688C53.1487 46.4226 46.6776 41.8252 39.1328 41.8252C29.0953 41.8252 20.958 49.9624 20.958 60C20.9581 70.0375 29.0953 78.1748 39.1328 78.1748C46.6778 78.1748 53.1488 73.5766 55.8975 67.0303C58.767 77.8112 68.0782 85.9658 79.458 87.1211C81.7961 87.3584 82.2441 86.9533 82.2441 84.4219V73.5596C82.2442 71.4382 82.9613 69.087 86.3584 69.0869H92.876C94.2781 69.0869 94.3344 69.0566 95.1309 67.9316C95.1309 67.9316 98.5468 63.1615 99.2256 62.1484C99.904 61.1357 99.8332 60.8694 99.2256 60C98.6178 59.1303 95.1309 54.3193 95.1309 54.3193C94.3319 53.2108 94.2672 53.1846 92.876 53.1846H84.1963C82.7767 53.1847 82.2442 53.9417 82.2441 55.4561V63.3369C82.2441 65.2571 82.2441 66.8153 79.458 66.8154C75.4079 66.8154 73.21 63.7641 73.21 60C73.21 56.6982 75.6571 53.3184 79.458 53.3184C82.0135 53.3183 82.2441 52.7071 82.2441 51.4805V35.0098ZM39.1328 53.9414C42.4787 53.9414 45.1914 56.6542 45.1914 60C45.1913 63.3458 42.4786 66.0576 39.1328 66.0576C35.787 66.0576 33.0743 63.3458 33.0742 60C33.0742 56.6541 35.787 53.9414 39.1328 53.9414Z" fill="#F5F5F5"/>
</svg>
