<?xml version="1.0" encoding="UTF-8"?>
<svg id="logo_bg_blk__fg_ylw__bd_ylw__v01" data-name="logo_bg[blk]_fg[ylw]_bd[ylw]_v01" xmlns="http://www.w3.org/2000/svg" viewBox="0 0 723.79 634.37">
  <defs>
    <style>
      .cls-1 {
        fill: #11100c;
        stroke-width: 18.5px;
      }

      .cls-1, .cls-2 {
        stroke: #ff5;
      }

      .cls-2 {
        stroke-width: 2px;
      }

      .cls-2, .cls-3 {
        fill: #ff5;
      }
    </style>
  </defs>
  <rect class="cls-1" x="9.25" y="9.25" width="705.29" height="615.87"/>
  <g>
    <g>
      <path class="cls-2" d="M207.15,264.59c8.19,0,15.03,1.31,20.52,3.93,5.49,2.62,9.87,5.65,13.15,9.09,3.28,3.44,5.65,6.39,7.13,8.85h1.47v-19.42h28.02v130.27h-28.02v-19.42h-1.47c-1.47,2.46-3.85,5.41-7.13,8.85-3.28,3.44-7.66,6.48-13.15,9.09-5.49,2.62-12.33,3.93-20.52,3.93-9.83,0-18.4-1.93-25.69-5.78-7.29-3.85-13.4-9.01-18.31-15.48-4.92-6.47-8.56-13.72-10.94-21.75-2.38-8.03-3.56-16.22-3.56-24.58s1.19-16.55,3.56-24.58c2.37-8.03,6.02-15.28,10.94-21.75,4.92-6.47,11.02-11.63,18.31-15.49,7.29-3.85,15.85-5.78,25.69-5.78ZM213.3,287.94c-8.03,0-14.75,2.17-20.16,6.51-5.41,4.34-9.46,9.87-12.17,16.59-2.7,6.72-4.06,13.76-4.06,21.14s1.35,14.42,4.06,21.14c2.7,6.72,6.76,12.25,12.17,16.59,5.41,4.34,12.12,6.51,20.16,6.51s14.71-2.17,20.03-6.51c5.32-4.34,9.34-9.87,12.04-16.59,2.7-6.72,4.06-13.76,4.06-21.14s-1.35-14.42-4.06-21.14c-2.7-6.72-6.72-12.25-12.04-16.59-5.33-4.34-12.01-6.51-20.03-6.51Z"/>
      <path class="cls-2" d="M373.55,399.77c-10.98,0-20.57-1.93-28.76-5.78-8.2-3.85-14.99-9.01-20.4-15.48-5.41-6.47-9.46-13.72-12.17-21.75-2.7-8.03-4.05-16.22-4.05-24.58s1.35-16.55,4.05-24.58c2.7-8.03,6.76-15.28,12.17-21.75,5.41-6.47,12.21-11.63,20.4-15.49,8.19-3.85,17.78-5.78,28.76-5.78s19.79,1.6,26.91,4.79c7.13,3.2,12.82,7.17,17.08,11.92,4.26,4.75,7.46,9.5,9.59,14.26,2.13,4.75,3.77,10.41,4.92,16.96h-26.55c-1.47-4.92-3.28-9.01-5.41-12.29-2.13-3.28-5.28-6.14-9.46-8.6s-9.79-3.69-16.84-3.69c-8.36,0-15.32,2.09-20.89,6.27-5.57,4.18-9.79,9.63-12.66,16.35-2.87,6.72-4.3,13.93-4.3,21.63s1.43,14.91,4.3,21.63c2.86,6.72,7.08,12.17,12.66,16.35,5.57,4.18,12.54,6.27,20.89,6.27,7.04,0,12.66-1.23,16.84-3.69s7.33-5.32,9.46-8.6c2.13-3.28,3.93-7.37,5.41-12.29h26.55c-1.15,6.56-2.79,12.21-4.92,16.96-2.13,4.75-5.33,9.5-9.59,14.26-4.26,4.75-9.95,8.73-17.08,11.92-7.13,3.2-16.1,4.79-26.91,4.79Z"/>
      <path class="cls-2" d="M519.31,399.77c-10.32,0-18.6-1.89-24.83-5.65-6.23-3.77-10.69-8.81-13.4-15.12-2.7-6.31-4.06-13.15-4.06-20.52v-68.82h-22.86v-22.61h22.86v-32.44h28.02v32.44h30.48v22.61h-30.48v68.33c0,12.29,6.8,18.43,20.4,18.43,3.44,0,8.11-.49,14.01-1.47v22.86c-8.03,1.31-14.75,1.97-20.16,1.97Z"/>
    </g>
    <g>
      <rect class="cls-3" x="551.28" y="374.92" width="22.86" height="22.86"/>
      <path class="cls-3" d="M575.13,398.77h-24.86v-24.86h24.86v24.86ZM552.28,396.77h20.86v-20.86h-20.86v20.86Z"/>
    </g>
  </g>
</svg>