<svg width="478" height="135" viewBox="0 0 478 135" fill="none" xmlns="http://www.w3.org/2000/svg">
<path d="M297.677 0.388763H314.671V0.444304L323.002 8.55269V92.4133L280.183 134.288L271.852 126.735L271.741 126.624L223.924 83.9162V0.388763H241.307V0.444304L249.249 8.55269V83.3053L272.074 102.466L297.621 76.9186V0.388763H297.677ZM272.185 104.854L239.641 77.585V2.33255H225.923V83.3608L271.797 123.958H272.185L313.005 83.3608V2.33255H299.454V77.5295L272.185 104.854Z" fill="#171717"/>
<path d="M68.6435 65.5335L25.3248 108.241V134.677H9.60788L1.16627 126.957L0 125.68V0H17.272V0.0555402L25.3248 8.16392L25.4914 67.0885L68.588 24.3807V0H85.5823V0.0555402L93.9128 8.16392V134.732H77.7516L69.6432 127.013L68.6991 125.68L68.6435 65.5335ZM70.1986 123.736H83.9162V2.1104H70.143V25.1582L15.6614 79.6954V2.1104H1.72164V123.736H15.6614V98.8001L70.1986 44.485V123.736Z" fill="#171717"/>
<path d="M177.942 0.111074L133.734 0.055542V2.16594H176.165V15.7169H134.179V25.7691H186.217V8.21946L177.942 0.111074Z" fill="#171717"/>
<path d="M143.899 15.9391H134.236V69.9764L144.066 63.2565L143.899 15.9391ZM136.624 2.22146L135.846 1.44394V0.111053H118.574V80.695L120.296 79.4732V2.22146H136.624Z" fill="#171717"/>
<path d="M204.045 108.186H166.336L206.489 66.4221L198.658 56.2033L188.44 43.0411L143.899 89.4143V56.3144L134.236 58.4248V101.966L187.94 46.2622L196.437 56.8697L196.048 57.2585L145.232 109.685H202.268V123.625H120.518V61.4238L118.574 61.8681V125.569L119.74 126.902L128.238 134.621H212.376V116.794L204.045 108.297V108.186Z" fill="#171717"/>
<path d="M344.995 127.901L344.273 127.235V0.33316H419.415L459.679 40.8751L470.786 51.9269V52.5933L477.617 59.4244L477.395 134.399H464.011L456.958 127.901L456.236 127.235V57.8138L420.359 21.8259H386.481L416.305 51.9824V52.6489L423.302 59.4799L423.08 134.455H409.529L402.698 127.901L401.976 127.235V57.8138L365.933 21.8259H365.6L365.377 134.399H352.16L344.995 127.901ZM359.657 13.3843L403.531 57.3695V125.624H414.916V52.6489L375.929 13.3843H414.083L457.846 57.3695V125.68H469.231V52.6489L458.513 42.0413L418.748 1.99927H345.94V125.68H357.491V13.3843H359.657Z" fill="#171717"/>
</svg>
